<?xml version="1.0" encoding="UTF-8"?>
<mxGraphModel dx="1426" dy="812" grid="1" gridSize="10" guides="1" tooltips="1" connect="1" arrows="1" fold="1" page="1" pageScale="1" pageWidth="827" pageHeight="1169" math="0" shadow="0">
  <root>
    <mxCell id="0" />
    <mxCell id="1" parent="0" />
    
    <!-- Clock Signal -->
    <mxCell id="2" value="Clock" style="text;" vertex="1" parent="1">
      <mxGeometry x="40" y="20" width="60" height="30" as="geometry" />
    </mxCell>
    
    <!-- Input Matrices -->
    <mxCell id="3" value="Matrix A" style="text;" vertex="1" parent="1">
      <mxGeometry x="20" y="80" width="80" height="30" as="geometry" />
    </mxCell>
    <mxCell id="4" value="Matrix B" style="text;" vertex="1" parent="1">
      <mxGeometry x="20" y="120" width="80" height="30" as="geometry" />
    </mxCell>
    
    <!-- Multiplication Process -->
    <mxCell id="5" value="Multiplication" style="shape=ellipse;" vertex="1" parent="1">
      <mxGeometry x="150" y="100" width="100" height="50" as="geometry" />
    </mxCell>
    <mxCell id="6" value="Summation" style="shape=ellipse;" vertex="1" parent="1">
      <mxGeometry x="280" y="100" width="100" height="50" as="geometry" />
    </mxCell>
    
    <!-- Output Matrix -->
    <mxCell id="7" value="Matrix C" style="text;" vertex="1" parent="1">
      <mxGeometry x="420" y="100" width="80" height="30" as="geometry" />
    </mxCell>
    
    <!-- FSM Box -->
    <mxCell id="8" value="Finite State Machine (FSM)" style="shape=rectangle; rounded=1;" vertex="1" parent="1">
      <mxGeometry x="150" y="200" width="350" height="100" as="geometry" />
    </mxCell>
    
    <!-- FSM States -->
    <mxCell id="9" value="S0" style="shape=ellipse;" vertex="1" parent="8">
      <mxGeometry x="20" y="40" width="40" height="40" as="geometry" />
    </mxCell>
    <mxCell id="10" value="S1" style="shape=ellipse;" vertex="1" parent="8">
      <mxGeometry x="100" y="40" width="40" height="40" as="geometry" />
    </mxCell>
    <mxCell id="11" value="S2" style="shape=ellipse;" vertex="1" parent="8">
      <mxGeometry x="180" y="40" width="40" height="40" as="geometry" />
    </mxCell>
    <mxCell id="12" value="S3" style="shape=ellipse;" vertex="1" parent="8">
      <mxGeometry x="260" y="40" width="40" height="40" as="geometry" />
    </mxCell>
    
    <!-- FSM Transitions -->
    <mxCell id="13" edge="1" parent="8" source="9" target="10">
      <mxGeometry relative="1" as="geometry" />
    </mxCell>
    <mxCell id="14" edge="1" parent="8" source="10" target="11">
      <mxGeometry relative="1" as="geometry" />
    </mxCell>
    <mxCell id="15" edge="1" parent="8" source="11" target="12">
      <mxGeometry relative="1" as="geometry" />
    </mxCell>
    <mxCell id="16" edge="1" parent="8" source="12" target="9">
      <mxGeometry relative="1" as="geometry" />
    </mxCell>
    
    <!-- Arrows from Inputs to Multiplication -->
    <mxCell id="17" edge="1" parent="1" source="3" target="5">
      <mxGeometry relative="1" as="geometry" />
    </mxCell>
    <mxCell id="18" edge="1" parent="1" source="4" target="5">
      <mxGeometry relative="1" as="geometry" />
    </mxCell>
    
    <!-- Arrows from Multiplication to Summation -->
    <mxCell id="19" edge="1" parent="1" source="5" target="6">
      <mxGeometry relative="1" as="geometry" />
    </mxCell>
    
    <!-- Arrows from Summation to Output -->
    <mxCell id="20" edge="1" parent="1" source="6" target="7">
      <mxGeometry relative="1" as="geometry" />
    </mxCell>
  </root>
</mxGraphModel>
